<svg xmlns="http://www.w3.org/2000/svg" xmlns:xlink="http://www.w3.org/1999/xlink" width="2000" height="1400" viewBox="0 0 2000 1400">
  <defs>
    <clipPath id="clip-M36_Logo">
      <rect width="2000" height="1400"/>
    </clipPath>
  </defs>
  <g id="M36_Logo" data-name="M36 Logo" clip-path="url(#clip-M36_Logo)">
    <g id="Group_9" data-name="Group 9" transform="translate(-529 -799.71)">
      <path id="Path_22" data-name="Path 22" d="M2190.63,1062.71H1876.113a53.349,53.349,0,0,0-46.3,26.808l-57.05,98.807-36.22,62.718h145.044l27.458-47.588.016-.017a26.113,26.113,0,0,1,1.923-3.338l.048-.065a26.65,26.65,0,0,1,22.084-11.71h85.372v.293a26.693,26.693,0,0,1,22.816,40.52l.374.212-12.523,21.693-36.107,62.555-9.982,17.279-62.132,107.6-2.166,3.746a186.956,186.956,0,0,1,150.825,183.495v.1a187.111,187.111,0,1,1-374.222,0v-.1H1569.382a313.571,313.571,0,0,0,6.3,62.523,310.079,310.079,0,0,0,56.431,124.882,315.084,315.084,0,0,0,44.8,48.011,311.594,311.594,0,0,0,515.926-235.416v-.162a311.465,311.465,0,0,0-101.8-230.465l47.051-81.495,36.106-62.555,36.22-62.718,24.461-42.392c.033-.033.049-.082.082-.115a52.377,52.377,0,0,0,3.664-6.368,53.393,53.393,0,0,0-48-76.74Z" fill="#fced00"/>
      <path id="Path_23" data-name="Path 23" d="M1806.083,1563.361a98.379,98.379,0,0,0-22.051,62.2v.162a98.719,98.719,0,0,0,197.437,0v-.162a98.721,98.721,0,0,0-98.727-98.727,100.137,100.137,0,0,0-13.339.9A98.536,98.536,0,0,0,1806.083,1563.361Z" fill="#fced00"/>
      <path id="Path_24" data-name="Path 24" d="M1631.741,1438.479a310.1,310.1,0,0,0-56.138,124.882h125.663l72.1-124.882,70.7-122.471,1.4-2.41h-405.3c-.537-.016-1.074-.016-1.612-.016s-1.075,0-1.612.016a62.273,62.273,0,0,0-51.366,29.478l-2.019,3.485-53.077,91.918H1066.435v.017a62.33,62.33,0,0,0-54.8,32.6l-.114-.065L958.2,1563.361l-35.992,62.359L886.1,1688.243,814,1813.125H964.093l72.1-124.882,36.1-62.523,27.98-48.451.114.066a26.654,26.654,0,0,1,23.452-13.974h134.539l-35.992,62.359-36.106,62.523-72.1,124.882h147.747l72.1-124.882,36.106-62.523,35.992-62.359,64.624-111.918.032.017a26.651,26.651,0,0,1,22.817-12.85v-.131Z" fill="#fced00"/>
    </g>
  </g>
</svg>
